<svg width="100" height="105" fill="none" xmlns="http://www.w3.org/2000/svg">
  <path d="M16.667 85.782V20.157c0-2.9 1.097-5.683 3.05-7.734 1.954-2.051 4.604-3.203 7.366-3.203h52.084c1.105 0 2.165.46 2.946 1.28a4.489 4.489 0 0 1 1.22 3.095v78.75c0 1.16-.439 2.273-1.22 3.093a4.068 4.068 0 0 1-2.946 1.281H27.083c-2.762 0-5.412-1.152-7.365-3.203-1.954-2.051-3.051-4.833-3.051-7.734Zm0 0c0-2.9 1.097-5.683 3.05-7.734 1.954-2.051 4.604-3.204 7.366-3.204h56.25" stroke="#fff" stroke-width="4" stroke-linecap="round" stroke-linejoin="round"/>
  <path d="M83.415 86.006h-66.83m66.831 5.398-63.903-.048m63.903-10.712-63.903-.048" stroke="#fff" stroke-width="2" stroke-linecap="round" stroke-linejoin="round"/>
  <g clip-path="url(#a)">
    <path d="m72.425 57.658-8.833-8.833a1.688 1.688 0 0 0-2.384 0l-.454.456-3.033-3.033a17.333 17.333 0 1 0-1.475 1.473l3.035 3.033-.456.454a1.688 1.688 0 0 0 0 2.386l8.833 8.829a1.684 1.684 0 0 0 2.382 0l2.385-2.381a1.69 1.69 0 0 0 0-2.384ZM29.583 34.792A15.208 15.208 0 1 1 44.792 50a15.225 15.225 0 0 1-15.209-15.208ZM68.85 60.669l-8.27-8.267 1.82-1.819 8.27 8.267-1.82 1.819ZM56.25 40.52V29.062a1.565 1.565 0 0 0-1.563-1.562h-3.124A1.564 1.564 0 0 0 50 29.063V40.52a1.565 1.565 0 0 0 1.563 1.562h3.124a1.565 1.565 0 0 0 1.563-1.562ZM54.167 40h-2.084V29.583h2.084V40Zm-7.813-16.667H43.23a1.565 1.565 0 0 0-1.562 1.563V40.52a1.564 1.564 0 0 0 1.562 1.562h3.125a1.564 1.564 0 0 0 1.563-1.562V24.896a1.565 1.565 0 0 0-1.563-1.563ZM45.834 40H43.75V25.417h2.083V40Zm-7.813-8.333h-3.125a1.564 1.564 0 0 0-1.563 1.562v7.292a1.565 1.565 0 0 0 1.563 1.562h3.125a1.564 1.564 0 0 0 1.562-1.562v-7.292a1.564 1.564 0 0 0-1.562-1.562ZM37.5 40h-2.083v-6.25H37.5V40Z" fill="#F980BD"/>
  </g>
  <defs>
    <clipPath id="a">
      <path fill="#fff" transform="translate(25 15)" d="M0 0h50v50H0z"/>
    </clipPath>
  </defs>
</svg>