<svg width="100" height="100" viewBox="0 0 100 100" fill="none" xmlns="http://www.w3.org/2000/svg">
<rect width="100" height="100" fill="#181818"/>
<path d="M30.4094 69.3348V30.9576C30.4094 29.2612 31.0512 27.6343 32.1936 26.4348C33.336 25.2353 34.8854 24.5614 36.501 24.5614H66.9591C67.6054 24.5614 68.2251 24.831 68.6821 25.3108C69.1391 25.7906 69.3958 26.4413 69.3958 27.1199V73.1725C69.3958 73.8511 69.1391 74.5018 68.6821 74.9816C68.2251 75.4615 67.6054 75.731 66.9591 75.731H36.501C34.8854 75.731 33.336 75.0571 32.1936 73.8576C31.0512 72.6581 30.4094 71.0312 30.4094 69.3348ZM30.4094 69.3348C30.4094 67.6384 31.0512 66.0115 32.1936 64.812C33.336 63.6125 34.8854 62.9386 36.501 62.9386H69.3958" stroke="white" stroke-width="4" stroke-linecap="round" stroke-linejoin="round"/>
<path d="M69.6858 67.7079L30.6043 67.7079" stroke="white" stroke-width="2" stroke-linecap="round" stroke-linejoin="round"/>
<path d="M68.5591 71.2449L31.1892 71.2167" stroke="white" stroke-width="2" stroke-linecap="round" stroke-linejoin="round"/>
<g clip-path="url(#clip0_2011_16)">
<path d="M63.2355 51.6652L63.2364 51.6661C63.5065 51.9375 63.6581 52.3048 63.6581 52.6877C63.6581 53.0706 63.5065 53.4379 63.2364 53.7094L63.2352 53.7106L61.8964 55.047L63.2355 51.6652ZM63.2355 51.6652L58.2764 46.7061L58.276 46.7056M63.2355 51.6652L58.276 46.7056M58.276 46.7056C58.0047 46.435 57.6371 46.2831 57.2539 46.2831C56.9169 46.2831 56.5921 46.4006 56.3341 46.6129M58.276 46.7056L56.3341 46.6129M56.3341 46.6129L55.306 45.5847C56.8724 43.647 57.6814 41.1988 57.5703 38.6988C57.4522 36.0413 56.3036 33.5342 54.3682 31.7093C52.4328 29.8843 49.8626 28.885 47.2028 28.9231C44.5429 28.9612 42.0024 30.0339 40.1201 31.9135C38.2378 33.7932 37.1616 36.3321 37.1197 38.9919C37.0778 41.6518 38.0735 44.2233 39.8957 46.1613C41.7179 48.0993 44.2233 49.2514 46.8807 49.3733C49.3808 49.488 51.8305 48.6822 53.7705 47.1182L54.7999 48.147M56.3341 46.6129L54.7999 48.147M54.7999 48.147C54.5873 48.405 54.4697 48.7301 54.4697 49.0673C54.4697 49.4509 54.622 49.8188 54.8932 50.0902L54.8934 50.0905L59.8523 55.047C59.8523 55.0471 59.8523 55.0471 59.8524 55.0471C59.8524 55.0471 59.8524 55.0472 59.8525 55.0472C59.9866 55.1814 60.1459 55.2878 60.3212 55.3605C60.4965 55.4331 60.6845 55.4705 60.8744 55.4705C61.0642 55.4705 61.2522 55.4331 61.4275 55.3605C61.6027 55.2879 61.7619 55.1815 61.896 55.0474L54.7999 48.147ZM54.3013 42.3983V42.3977V35.9649V35.9642C54.3008 35.5993 54.1556 35.2495 53.8975 34.9914C53.6395 34.7334 53.2897 34.5882 52.9247 34.5877H52.9241L51.1697 34.5877L51.169 34.5877C50.8041 34.5882 50.4542 34.7334 50.1962 34.9914C49.9382 35.2495 49.793 35.5993 49.7925 35.9642V35.9649V42.3977V42.3983C49.793 42.7633 49.9382 43.1131 50.1962 43.3711C50.4542 43.6292 50.8041 43.7744 51.169 43.7749H51.1697H52.9241H52.9247C53.2897 43.7744 53.6395 43.6292 53.8975 43.3711C54.1556 43.1131 54.3008 42.7633 54.3013 42.3983ZM48.2464 32.2485H48.2457L46.4913 32.2485L46.4906 32.2485C46.1257 32.249 45.7759 32.3942 45.5178 32.6523C45.2598 32.9103 45.1146 33.2601 45.1141 33.6251V33.6257L45.1141 42.3977L45.1141 42.3983C45.1146 42.7633 45.2598 43.1131 45.5178 43.3711C45.7759 43.6292 46.1257 43.7744 46.4906 43.7749H46.4913H48.2457H48.2464C48.6113 43.7744 48.9611 43.6292 49.2192 43.3711C49.4772 43.1131 49.6224 42.7633 49.6229 42.3983V42.3977V33.6257V33.6251C49.6224 33.2601 49.4772 32.9103 49.2192 32.6523C48.9611 32.3942 48.6113 32.249 48.2464 32.2485ZM43.568 36.9269H43.5673L41.813 36.9269L41.8123 36.9269C41.4474 36.9274 41.0975 37.0726 40.8395 37.3306C40.5814 37.5887 40.4362 37.9385 40.4358 38.3034V38.3041L40.4358 42.3977L40.4358 42.3983C40.4362 42.7633 40.5814 43.1131 40.8395 43.3711C41.0975 43.6292 41.4474 43.7744 41.8123 43.7749H41.813H43.5673H43.568C43.9329 43.7744 44.2828 43.6292 44.5408 43.3711C44.7989 43.1131 44.944 42.7633 44.9445 42.3983V42.3977L44.9445 38.3041L44.9445 38.3034C44.944 37.9385 44.7989 37.5887 44.5408 37.3306C44.2828 37.0726 43.9329 36.9274 43.568 36.9269ZM39.3305 39.1811C39.3305 37.5914 39.802 36.0374 40.6851 34.7156C41.5684 33.3938 42.8237 32.3635 44.2925 31.7551C45.7612 31.1468 47.3774 30.9876 48.9366 31.2977C50.4959 31.6079 51.9281 32.3734 53.0522 33.4976C54.1764 34.6217 54.9419 36.0539 55.2521 37.6131C55.5622 39.1724 55.403 40.7885 54.7947 42.2573C54.1863 43.7261 53.156 44.9814 51.8342 45.8646C50.5125 46.7478 48.9586 47.2192 47.3691 47.2193C45.2378 47.217 43.1945 46.3693 41.6875 44.8623C40.1806 43.3553 39.3329 41.3122 39.3305 39.1811ZM57.2538 48.7536L61.1898 52.6876L60.875 53.002L56.9391 49.068L57.2538 48.7536ZM52.1317 41.6053H51.9621V36.7573H52.1317V41.6053ZM47.4533 41.6053H47.2837V34.4181H47.4533V41.6053ZM42.7749 41.6053H42.6053V39.0965H42.7749V41.6053Z" fill="#F980BD" stroke="#610E38"/>
</g>
<defs>
<clipPath id="clip0_2011_16">
<rect width="28.0702" height="28.0702" fill="white" transform="translate(36.2574 28.0702)"/>
</clipPath>
</defs>
</svg>
